<svg width="21" height="16" viewBox="0 0 21 16" fill="none" xmlns="http://www.w3.org/2000/svg">
<path d="M19.3425 0.249102L11.3425 7.2491C11.2351 7.34296 11.149 7.45872 11.09 7.58859C11.031 7.71847 11.0005 7.85946 11.0005 8.0021C11.0005 8.14474 11.031 8.28574 11.09 8.41561C11.149 8.54549 11.2351 8.66124 11.3425 8.7551L19.3425 15.7551C19.9895 16.3201 21.0015 15.8611 21.0015 15.0021V1.0021C21.0015 0.142102 19.9895 -0.315898 19.3425 0.249102Z" fill="currentColor"/>
<path d="M8.34247 0.249102L0.342468 7.2491C0.235058 7.34296 0.148972 7.45872 0.0899883 7.58859C0.0310045 7.71847 0.000488281 7.85946 0.000488281 8.0021C0.000488281 8.14474 0.0310045 8.28574 0.0899883 8.41561C0.148972 8.54549 0.235058 8.66124 0.342468 8.7551L8.34247 15.7551C8.98947 16.3201 10.0015 15.8611 10.0015 15.0021V1.0021C10.0015 0.142102 8.98947 -0.315898 8.34247 0.249102Z" fill="currentColor"/>
<path d="M19.3425 0.249102L11.3425 7.2491C11.2351 7.34296 11.149 7.45872 11.09 7.58859C11.031 7.71847 11.0005 7.85946 11.0005 8.0021C11.0005 8.14474 11.031 8.28574 11.09 8.41561C11.149 8.54549 11.2351 8.66124 11.3425 8.7551L19.3425 15.7551C19.9895 16.3201 21.0015 15.8611 21.0015 15.0021V1.0021C21.0015 0.142102 19.9895 -0.315898 19.3425 0.249102Z" stroke="currentColor"/>
<path d="M8.34247 0.249102L0.342468 7.2491C0.235058 7.34296 0.148972 7.45872 0.0899883 7.58859C0.0310045 7.71847 0.000488281 7.85946 0.000488281 8.0021C0.000488281 8.14474 0.0310045 8.28574 0.0899883 8.41561C0.148972 8.54549 0.235058 8.66124 0.342468 8.7551L8.34247 15.7551C8.98947 16.3201 10.0015 15.8611 10.0015 15.0021V1.0021C10.0015 0.142102 8.98947 -0.315898 8.34247 0.249102Z" stroke="currentColor"/>
</svg>
