<svg width="21" height="16" viewBox="0 0 21 16" fill="none" xmlns="http://www.w3.org/2000/svg">
<path d="M0.000488281 1.00191V15.0019C0.000488281 15.8619 1.01249 16.3199 1.65949 15.7549L9.65949 8.75491C9.7669 8.66105 9.85298 8.54529 9.91197 8.41542C9.97095 8.28554 10.0015 8.14455 10.0015 8.00191C10.0015 7.85927 9.97095 7.71828 9.91197 7.5884C9.85298 7.45852 9.7669 7.34277 9.65949 7.24891L1.65949 0.248909C1.01249 -0.316091 0.000488281 0.142909 0.000488281 1.00191Z" fill="currentColor"/>
<path d="M11.0005 1.00191V15.0019C11.0005 15.8619 12.0125 16.3199 12.6595 15.7549L20.6595 8.75491C20.7669 8.66105 20.853 8.54529 20.912 8.41542C20.971 8.28554 21.0015 8.14455 21.0015 8.00191C21.0015 7.85927 20.971 7.71828 20.912 7.5884C20.853 7.45852 20.7669 7.34277 20.6595 7.24891L12.6595 0.248909C12.0125 -0.316091 11.0005 0.142909 11.0005 1.00191Z" fill="currentColor"/>
<path d="M0.000488281 1.00191V15.0019C0.000488281 15.8619 1.01249 16.3199 1.65949 15.7549L9.65949 8.75491C9.7669 8.66105 9.85298 8.54529 9.91197 8.41542C9.97095 8.28554 10.0015 8.14455 10.0015 8.00191C10.0015 7.85927 9.97095 7.71828 9.91197 7.5884C9.85298 7.45852 9.7669 7.34277 9.65949 7.24891L1.65949 0.248909C1.01249 -0.316091 0.000488281 0.142909 0.000488281 1.00191Z" stroke="currentColor"/>
<path d="M11.0005 1.00191V15.0019C11.0005 15.8619 12.0125 16.3199 12.6595 15.7549L20.6595 8.75491C20.7669 8.66105 20.853 8.54529 20.912 8.41542C20.971 8.28554 21.0015 8.14455 21.0015 8.00191C21.0015 7.85927 20.971 7.71828 20.912 7.5884C20.853 7.45852 20.7669 7.34277 20.6595 7.24891L12.6595 0.248909C12.0125 -0.316091 11.0005 0.142909 11.0005 1.00191Z" stroke="currentColor"/>
</svg>
