<svg width="14" height="16" viewBox="0 0 14 16" fill="none" xmlns="http://www.w3.org/2000/svg">
<path d="M4.00049 0H2.00049C1.47006 0 0.961347 0.210714 0.586275 0.585786C0.211202 0.960859 0.000488281 1.46957 0.000488281 2V14C0.000488281 14.5304 0.211202 15.0391 0.586275 15.4142C0.961347 15.7893 1.47006 16 2.00049 16H4.00049C4.53092 16 5.03963 15.7893 5.4147 15.4142C5.78977 15.0391 6.00049 14.5304 6.00049 14V2C6.00049 1.46957 5.78977 0.960859 5.4147 0.585786C5.03963 0.210714 4.53092 0 4.00049 0Z" fill="currentColor"/>
<path d="M12.0005 0H10.0005C9.47006 0 8.96135 0.210714 8.58628 0.585786C8.2112 0.960859 8.00049 1.46957 8.00049 2V14C8.00049 14.5304 8.2112 15.0391 8.58628 15.4142C8.96135 15.7893 9.47006 16 10.0005 16H12.0005C12.5309 16 13.0396 15.7893 13.4147 15.4142C13.7898 15.0391 14.0005 14.5304 14.0005 14V2C14.0005 1.46957 13.7898 0.960859 13.4147 0.585786C13.0396 0.210714 12.5309 0 12.0005 0Z" fill="currentColor"/>
<path d="M4.00049 0H2.00049C1.47006 0 0.961347 0.210714 0.586275 0.585786C0.211202 0.960859 0.000488281 1.46957 0.000488281 2V14C0.000488281 14.5304 0.211202 15.0391 0.586275 15.4142C0.961347 15.7893 1.47006 16 2.00049 16H4.00049C4.53092 16 5.03963 15.7893 5.4147 15.4142C5.78977 15.0391 6.00049 14.5304 6.00049 14V2C6.00049 1.46957 5.78977 0.960859 5.4147 0.585786C5.03963 0.210714 4.53092 0 4.00049 0Z" stroke="currentColor"/>
<path d="M12.0005 0H10.0005C9.47006 0 8.96135 0.210714 8.58628 0.585786C8.2112 0.960859 8.00049 1.46957 8.00049 2V14C8.00049 14.5304 8.2112 15.0391 8.58628 15.4142C8.96135 15.7893 9.47006 16 10.0005 16H12.0005C12.5309 16 13.0396 15.7893 13.4147 15.4142C13.7898 15.0391 14.0005 14.5304 14.0005 14V2C14.0005 1.46957 13.7898 0.960859 13.4147 0.585786C13.0396 0.210714 12.5309 0 12.0005 0Z" stroke="currentColor"/>
</svg>
