<svg width="18" height="18" viewBox="0 0 18 18" fill="none" xmlns="http://www.w3.org/2000/svg">
<path d="M10.75 1V5H4.75V1M2.75 1H12.75L16.75 5V15C16.75 15.5304 16.5393 16.0391 16.1642 16.4142C15.7891 16.7893 15.2804 17 14.75 17H2.75C2.21957 17 1.71086 16.7893 1.33579 16.4142C0.960714 16.0391 0.75 15.5304 0.75 15V3C0.75 2.46957 0.960714 1.96086 1.33579 1.58579C1.71086 1.21071 2.21957 1 2.75 1ZM6.75 11C6.75 11.5304 6.96071 12.0391 7.33579 12.4142C7.71086 12.7893 8.21957 13 8.75 13C9.28043 13 9.78914 12.7893 10.1642 12.4142C10.5393 12.0391 10.75 11.5304 10.75 11C10.75 10.4696 10.5393 9.96086 10.1642 9.58579C9.78914 9.21071 9.28043 9 8.75 9C8.21957 9 7.71086 9.21071 7.33579 9.58579C6.96071 9.96086 6.75 10.4696 6.75 11Z" stroke="currentColor" stroke-width="1.5" stroke-linecap="round" stroke-linejoin="round"/>
</svg>
