<svg width="20" height="21" viewBox="0 0 20 21" fill="none" xmlns="http://www.w3.org/2000/svg">
<path d="M19 10.5C19 8.71997 18.4722 6.97991 17.4832 5.49987C16.4943 4.01983 15.0887 2.86628 13.4442 2.18509C11.7996 1.5039 9.99002 1.32567 8.24419 1.67294C6.49836 2.0202 4.89472 2.87737 3.63604 4.13604C2.37737 5.39472 1.5202 6.99836 1.17294 8.74419C0.82567 10.49 1.0039 12.2996 1.68509 13.9442C2.36628 15.5887 3.51983 16.9943 4.99987 17.9832C6.47991 18.9722 8.21997 19.5 10 19.5M1.6001 7.5H18.4001M1.6001 13.5H10.0001M9.5778 1.5C7.89314 4.19961 7 7.31787 7 10.5C7 13.6821 7.89314 16.8004 9.5778 19.5M10.5 1.5C12.219 4.255 13 7.376 13 10.5M16 19.5V12.5M16 12.5L19 15.5M16 12.5L13 15.5" stroke="#09090B" stroke-width="2" stroke-linecap="round" stroke-linejoin="round"/>
</svg>
