<svg width="20" height="20" viewBox="0 0 20 20" fill="none" xmlns="http://www.w3.org/2000/svg">
<path d="M12.5 3.5L16.5 7.5M10 6L5 1L1 5L6 10M5 6L3.5 7.5M14 10L19 15L15 19L10 14M14 15L12.5 16.5M1 19.0003H5L18 6.0003C18.5304 5.46987 18.8284 4.75045 18.8284 4.0003C18.8284 3.25016 18.5304 2.53074 18 2.0003C17.4696 1.46987 16.7501 1.17188 16 1.17188C15.2499 1.17188 14.5304 1.46987 14 2.0003L1 15.0003V19.0003Z" stroke="currentColor" stroke-width="1.5" stroke-linecap="round" stroke-linejoin="round"/>
</svg>
